#!OML:ASF F:\VICON\USERDATA\INSTALL\rory3\rory3.ASF
:FULLY-SPECIFIED
:DEGREES
203
root 1.09078 17.5865 -26.4036 -0.152627 -3.1731 -2.71247
lowerback 18.8297 0.881894 1.31482
upperback 1.81711 1.75994 3.57127
thorax -8.67297 0.863022 2.67164
lowerneck -8.53865 -5.27832 -5.76466
upperneck 32.5097 -5.10718 -4.22271
head 12.1896 -3.48324 -1.24674
rclavicle 2.08724e-014 6.91771e-014
rhumerus -11.8984 -15.3702 -71.8623
rradius 62.6857
rwrist 16.8504
rhand -22.8364 15.4413
rfingers 7.12502
rthumb 3.60111 -14.508
lclavicle 2.08724e-014 6.91771e-014
lhumerus -43.4857 10.2929 78.9991
lradius 44.7402
lwrist 4.73148
lhand -8.81562 51.5541
lfingers 7.12502
lthumb 17.1239 80.8195
rfemur 4.54211 1.38286 28.0077
rtibia 21.4232
rfoot -22.5262 -19.9028
rtoes 10.7679
lfemur -26.3322 -9.56611 -8.12407
ltibia 27.4818
lfoot -8.46543 6.4316
ltoes -20.1106
204
root 1.12272 17.5776 -26.3334 -0.114886 -3.25555 -2.78829
lowerback 19.3108 1.02102 1.42496
upperback 1.69634 1.98606 3.54552
thorax -9.07513 0.966045 2.51947
lowerneck -9.57275 -5.55608 -5.65596
upperneck 33.3219 -5.40808 -4.31437
head 12.7389 -3.62758 -1.40825
rclavicle 9.54166e-015 1.27222e-014
rhumerus -11.2928 -15.5223 -72.3367
rradius 59.0519
rwrist 17.6739
rhand -22.5308 14.4561
rfingers 7.12502
rthumb 3.89622 -15.4881
lclavicle 9.54166e-015 1.27222e-014
lhumerus -43.4239 10.0757 79.0979
lradius 44.9407
lwrist 4.45039
lhand -8.76668 51.463
lfingers 7.12502
lthumb 17.171 80.7242
rfemur 4.73162 1.22681 27.9101
rtibia 21.4253
rfoot -22.4003 -19.8539
rtoes 9.45835
lfemur -26.5441 -9.35721 -8.24939
ltibia 27.88
lfoot -7.54275 5.60655
ltoes -20.4851
205
root 1.16072 17.5693 -26.2618 -0.0172228 -3.40449 -2.8882
lowerback 19.1853 1.23607 1.52544
upperback 1.53682 2.29381 3.5456
thorax -9.18938 1.10947 2.38135
lowerneck -7.60074 -5.43781 -5.64899
upperneck 32.4204 -5.43621 -4.19744
head 11.9556 -3.60609 -1.26018
rclavicle -7.7526e-015 7.95139e-015
rhumerus -10.9928 -15.7223 -72.6652
rradius 55.4114
rwrist 18.1664
rhand -22.3479 13.4181
rfingers 7.12502
rthumb 4.07282 -16.5228
lclavicle -7.7526e-015 7.95139e-015
lhumerus -43.7546 9.53352 79.2941
lradius 45.3914
lwrist 4.33495
lhand -8.82812 51.4072
lfingers 7.12502
lthumb 17.1119 80.6736
rfemur 4.84399 1.21475 27.8307
rtibia 21.5248
rfoot -23.0351 -19.4946
rtoes 11.1347
lfemur -26.8382 -9.2254 -8.33449
ltibia 28.4984
lfoot -6.52827 4.86007
ltoes -21.2175
206
root 1.20315 17.5602 -26.1892 0.114891 -3.4696 -3.00488
lowerback 18.9902 1.42678 1.92036
upperback 2.31146 2.57561 3.48178
thorax -8.2201 1.22998 2.01432
lowerneck -10.1575 -5.77984 -5.49162
upperneck 32.8044 -5.78953 -4.0966
head 12.6441 -3.73575 -1.4058
rclavicle 1.37161e-014 2.3059e-014
rhumerus -8.38425 -16.8027 -73.6578
rradius 51.4547
rwrist 18.9245
rhand -21.6229 11.7652
rfingers 7.12502
rthumb 4.77286 -18.1611
lclavicle 1.37161e-014 2.3059e-014
lhumerus -41.7686 9.26402 79.8209
lradius 45.539
lwrist 4.4201
lhand -8.89718 51.4283
lfingers 7.12502
lthumb 17.0454 80.7005
rfemur 4.92729 1.04304 27.7171
rtibia 21.6118
rfoot -22.2297 -19.6567
rtoes 6.45232
lfemur -27.2068 -9.21203 -8.40307
ltibia 29.2876
lfoot -5.78215 4.26236
ltoes -20.1354
207
root 1.24373 17.5445 -26.1155 0.206179 -3.52801 -3.07103
lowerback 19.9317 1.56432 2.03785
upperback 1.93671 2.83972 3.49669
thorax -9.1495 1.34502 1.87624
lowerneck -10.2246 -5.79114 -5.69643
upperneck 33.2108 -5.76965 -4.00997
head 12.8436 -3.74375 -1.35424
rclavicle -2.38542e-015 9.54166e-015
rhumerus -7.94512 -17.2851 -73.997
rradius 47.7706
rwrist 19.7365
rhand -20.594 9.99931
rfingers 7.12502
rthumb 5.76632 -19.9022
lclavicle -2.38542e-015 9.54166e-015
lhumerus -41.9295 9.02523 79.9196
lradius 45.748
lwrist 4.30245
lhand -8.69563 51.5567
lfingers 7.12502
lthumb 17.2394 80.812
rfemur 4.98776 1.03636 27.6193
rtibia 21.7846
rfoot -22.8649 -19.3986
rtoes 8.12173
lfemur -27.532 -9.02792 -8.58648
ltibia 30.2
lfoot -5.21596 3.64323
ltoes -17.2064
